<?xml version="1.0" standalone="no"?>
<!DOCTYPE svg PUBLIC "-//W3C//DTD SVG 20010904//EN"
 "http://www.w3.org/TR/2001/REC-SVG-20010904/DTD/svg10.dtd">
<svg version="1.0" xmlns="http://www.w3.org/2000/svg"
 width="300.000000pt" height="300.000000pt" viewBox="0 0 300.000000 300.000000"
 preserveAspectRatio="xMidYMid meet">
<metadata>
Created by potrace 1.10, written by Peter Selinger 2001-2011
</metadata>
<g transform="translate(0.000000,300.000000) scale(0.100000,-0.100000)"
fill="#0eaa66" stroke="none">
<path d="M707 1793 c-15 -15 -42 -19 -166 -23 -141 -5 -149 -6 -190 -33 -63
-42 -75 -71 -100 -230 -12 -78 -24 -150 -27 -159 -5 -16 2 -18 49 -18 l55 0 7
48 c13 95 11 92 70 92 50 0 56 3 84 37 17 21 31 41 31 44 0 10 -121 -1 -142
-13 -10 -5 -18 -14 -18 -20 0 -7 -8 -21 -19 -32 -10 -12 -24 -43 -31 -69 -9
-35 -17 -47 -29 -45 -18 4 -18 13 6 163 18 113 30 141 80 175 31 21 49 25 153
28 83 3 120 1 125 -8 12 -19 1 -22 -92 -27 -126 -6 -148 -11 -175 -38 -28 -27
-51 -95 -42 -119 11 -29 23 -17 30 31 4 28 16 56 30 70 21 21 32 23 121 23
125 0 157 14 196 88 29 52 26 67 -6 35z m-282 -283 c-28 -12 -37 -12 -30 0 3
6 16 10 28 9 21 0 21 -1 2 -9z"/>
<path d="M1200 1510 l0 -180 34 0 35 0 -5 84 c-4 92 6 116 50 116 38 0 46 -19
46 -112 l0 -88 33 0 33 0 -4 103 c-3 91 -6 105 -28 127 -29 30 -83 32 -115 5
l-22 -20 7 73 6 72 -35 0 -35 0 0 -180z"/>
<path d="M1460 1509 l0 -179 58 0 c133 1 192 34 192 106 0 37 -28 74 -57 74
-13 1 -10 5 9 16 50 27 49 99 -2 135 -17 12 -51 19 -112 22 l-88 5 0 -179z
m160 101 c33 -33 -1 -70 -66 -70 -22 0 -24 4 -24 45 0 45 0 45 35 45 22 0 43
-8 55 -20z m10 -140 c24 -24 24 -30 7 -54 -8 -11 -31 -20 -60 -23 l-47 -6 0
52 0 51 40 0 c27 0 47 -7 60 -20z"/>
<path d="M2200 1510 l0 -180 24 0 c36 0 49 24 44 75 -3 25 -3 45 1 44 3 0 25
-27 48 -60 38 -53 46 -59 78 -59 19 0 35 3 35 6 0 4 -23 35 -51 71 l-50 64 46
55 47 54 -41 0 c-36 0 -44 -5 -73 -45 -18 -24 -35 -44 -38 -45 -3 0 -3 45 -2
100 l4 100 -36 0 -36 0 0 -180z"/>
<path d="M2700 1610 c0 -25 -4 -30 -25 -30 -20 0 -25 -5 -25 -25 0 -20 5 -25
25 -25 25 0 25 -1 25 -79 0 -74 2 -81 27 -101 37 -29 77 -24 81 12 3 21 -1 27
-20 30 -21 3 -23 9 -26 71 -3 66 -3 67 23 67 20 0 25 5 25 25 0 20 -5 25 -25
25 -21 0 -25 5 -25 30 0 27 -3 30 -30 30 -27 0 -30 -3 -30 -30z m45 -50 c9
-15 -3 -30 -20 -24 -7 3 -11 12 -8 20 6 16 19 18 28 4z"/>
<path d="M657 1558 l-30 -33 5 28 c5 25 3 27 -28 27 l-34 0 0 -125 0 -125 33
0 33 0 -1 81 c0 87 12 109 62 109 20 0 23 5 23 35 0 45 -21 46 -63 3z"/>
<path d="M793 1574 c-71 -35 -85 -161 -24 -216 45 -40 111 -40 152 1 16 16 29
34 29 40 0 16 -49 13 -66 -4 -22 -22 -71 -19 -84 4 -19 37 -12 41 70 41 l80 0
0 30 c0 43 -25 87 -60 105 -36 19 -57 19 -97 -1z m87 -53 c18 -34 12 -41 -40
-41 -54 0 -62 10 -33 42 21 24 60 23 73 -1z"/>
<path d="M1024 1576 c-17 -8 -34 -21 -38 -31 -20 -53 9 -93 82 -114 32 -9 42
-17 40 -29 -4 -22 -51 -27 -68 -8 -7 9 -25 16 -40 16 -23 0 -27 -3 -23 -20 16
-60 122 -82 168 -35 48 47 24 106 -53 128 -35 10 -47 19 -47 33 0 24 42 32 51
10 8 -20 64 -22 64 -3 0 21 -43 56 -75 62 -17 3 -44 -1 -61 -9z"/>
<path d="M1795 1576 c-25 -11 -55 -50 -55 -71 0 -14 53 -2 70 15 24 24 43 25
65 4 21 -21 14 -38 -16 -39 -69 -3 -82 -7 -104 -30 -16 -15 -25 -36 -25 -54 0
-58 85 -92 138 -55 20 14 22 14 22 0 0 -11 10 -16 30 -16 l30 0 0 96 c0 109
-8 130 -55 150 -42 17 -61 17 -100 0z m95 -151 c0 -23 -30 -45 -61 -45 -58 0
-46 56 14 62 39 4 47 1 47 -17z"/>
<path d="M2035 1580 c-31 -12 -48 -38 -47 -71 1 -41 16 -57 71 -73 34 -10 47
-19 49 -34 3 -19 -2 -22 -28 -22 -18 0 -33 6 -36 15 -4 9 -19 15 -35 15 -36 0
-38 -22 -4 -55 18 -19 35 -25 68 -25 117 0 137 134 23 155 -38 8 -62 28 -51
45 9 15 41 12 55 -5 7 -8 25 -15 40 -15 24 0 27 3 23 21 -7 24 -59 59 -88 58
-11 0 -29 -4 -40 -9z"/>
<path d="M2478 1574 c-77 -41 -78 -198 -1 -233 13 -6 42 -11 64 -11 33 0 47 6
70 31 16 17 29 35 29 40 0 15 -57 10 -70 -6 -15 -18 -61 -20 -78 -3 -7 7 -12
20 -12 30 0 16 10 18 80 18 79 0 80 0 80 26 0 44 -31 95 -66 110 -42 17 -62
17 -96 -2z m86 -56 c24 -34 20 -38 -34 -38 -54 0 -65 14 -34 44 22 22 50 20
68 -6z"/>
</g>
</svg>
