 <svg  version="1.0" xmlns="http://www.w3.org/2000/svg"  width="600.000000pt" height="253.000000pt" viewBox="0 0 600.000000 253.000000"  preserveAspectRatio="xMidYMid meet">  <g transform="translate(0.000000,253.000000) scale(0.100000,-0.100000)" fill="#18a563" stroke="none"> <path d="M932 1996 c-36 -26 -57 -29 -320 -41 -137 -7 -168 -15 -230 -59 -78 -55 -96 -103 -142 -389 -16 -103 -30 -192 -30 -197 0 -6 35 -10 80 -10 l80 0 0 27 c0 51 22 154 37 168 10 10 36 15 81 15 l66 0 48 52 c44 48 60 78 41 78 -5 0 -48 -5 -98 -10 -86 -10 -135 -29 -135 -51 0 -6 -10 -25 -22 -41 -11 -17 -33 -63 -47 -102 -21 -55 -31 -71 -46 -71 -18 0 -20 6 -17 55 3 61 36 264 52 321 16 56 51 100 104 134 49 30 49 30 226 33 153 3 178 2 183 -12 3 -8 1 -18 -4 -22 -6 -3 -84 -12 -173 -19 -110 -8 -172 -17 -193 -29 -53 -27 -110 -148 -97 -203 9 -33 27 -24 37 18 18 72 38 117 62 139 23 22 37 24 178 31 204 9 233 23 296 147 29 57 23 68 -17 38z m-402 -414 c0 -9 -44 -32 -60 -32 -17 0 -11 28 8 33 30 8 52 7 52 -1z"/> <path d="M1670 1570 l0 -270 53 0 52 0 -3 129 c-3 120 -2 131 17 150 27 27 75 27 101 1 18 -18 20 -33 20 -150 l0 -130 51 0 51 0 -7 143 c-4 78 -12 153 -18 166 -20 42 -63 66 -117 66 -40 0 -54 -5 -79 -29 -17 -16 -33 -28 -35 -25 -2 2 -1 27 4 54 5 28 11 76 13 108 l6 57 -55 0 -54 0 0 -270z m61 141 c-2 -70 0 -84 15 -96 18 -12 18 -15 2 -48 -10 -22 -16 -61 -17 -108 0 -116 0 -119 -11 -119 -6 0 -10 84 -10 231 0 178 3 230 12 227 9 -3 12 -28 9 -87z m196 -86 c31 -22 43 -74 43 -195 0 -136 -17 -120 -22 20 -3 91 -6 109 -27 138 -13 19 -33 37 -45 42 -20 8 -20 9 4 9 14 1 35 -6 47 -14z"/> <path d="M2060 1569 l0 -272 113 6 c136 7 181 19 222 61 61 60 50 162 -21 196 l-31 15 36 31 c32 29 36 37 36 82 0 90 -54 127 -201 137 -49 3 -104 8 -121 11 l-33 5 0 -272z m125 221 c23 -6 25 -8 8 -9 -12 0 -31 -13 -43 -28 -27 -35 -24 -106 8 -150 l21 -30 -24 -23 c-22 -20 -25 -32 -25 -90 0 -57 3 -70 24 -89 21 -19 30 -21 77 -15 69 9 105 27 129 67 19 31 18 68 -3 95 -7 9 -6 11 6 7 20 -8 37 -53 33 -87 -7 -58 -47 -81 -168 -98 -99 -14 -128 -8 -128 23 -2 189 1 420 5 427 7 11 36 11 80 0z m147 -22 c50 -19 62 -110 18 -141 -10 -7 -22 -26 -27 -43 -8 -30 -9 -31 -43 -19 l-35 12 35 18 c54 27 70 45 70 79 0 40 -22 71 -68 96 -36 19 -36 20 -7 14 17 -3 42 -10 57 -16z m-63 -29 c34 -12 51 -35 51 -69 0 -26 -76 -63 -118 -58 -25 3 -27 7 -30 57 -2 29 -1 60 2 67 6 17 51 18 95 3z m52 -235 c16 -15 29 -33 29 -40 0 -26 -52 -63 -98 -70 -90 -12 -83 -18 -85 70 l-2 78 63 -5 c52 -4 69 -10 93 -33z"/> <path d="M3170 1570 l0 -270 33 0 c54 0 71 27 69 110 -1 39 1 70 5 70 5 0 24 -24 43 -53 19 -28 50 -69 69 -89 30 -34 38 -38 82 -38 27 0 49 3 49 6 0 3 -36 51 -79 107 -61 77 -77 103 -67 111 18 16 126 142 126 148 0 3 -24 3 -52 0 -58 -5 -87 -25 -134 -94 -15 -21 -31 -38 -37 -38 -7 0 -8 51 -3 150 l7 150 -55 0 -56 0 0 -270z m70 112 c0 -158 26 -199 87 -134 l26 27 -7 -38 c-8 -40 11 -81 60 -134 13 -14 21 -29 18 -34 -3 -5 0 -9 7 -9 7 0 10 -2 7 -5 -8 -9 -38 6 -33 16 3 4 -4 19 -15 31 -57 62 -96 98 -107 98 -22 0 -43 -44 -43 -90 0 -45 -13 -80 -26 -68 -5 5 -8 271 -4 441 0 9 7 17 15 17 12 0 15 -20 15 -118z m154 -80 c-6 -4 -14 -16 -18 -27 -6 -13 -10 -16 -13 -7 -6 15 14 42 31 42 8 0 8 -3 0 -8z"/> <path d="M3925 1748 c-2 -7 -5 -26 -7 -43 -2 -25 -8 -31 -33 -35 -25 -4 -30 -10 -30 -35 0 -25 5 -31 30 -35 l30 -5 6 -113 c6 -110 7 -115 36 -144 42 -42 101 -45 120 -6 16 31 8 58 -17 58 -30 0 -39 23 -42 115 l-3 90 32 3 c25 2 34 9 39 27 8 31 -2 45 -30 45 -31 0 -46 18 -46 57 0 32 -1 33 -40 33 -24 0 -42 -5 -45 -12z m65 -104 c11 -12 10 -18 -3 -32 -16 -15 -18 -15 -34 0 -13 14 -14 20 -3 32 7 9 16 16 20 16 4 0 13 -7 20 -16z m-16 -115 c3 -19 7 -54 11 -79 3 -29 15 -56 30 -72 14 -15 25 -29 25 -31 0 -9 -53 2 -64 13 -6 6 -13 55 -14 113 -4 99 3 127 12 56z"/> <path d="M861 1639 l-52 -53 7 41 6 41 -46 3 -46 4 0 -187 0 -188 48 0 47 0 0 103 c0 116 14 165 51 172 81 17 75 12 72 63 -4 65 -24 65 -87 1z m-59 -105 c-7 -25 -12 -78 -12 -119 0 -70 -10 -95 -24 -59 -8 20 -8 222 0 251 l6 23 21 -26 c18 -24 19 -31 9 -70z"/> <path d="M1070 1667 c-125 -64 -134 -278 -15 -344 75 -42 183 -18 229 52 33 50 -10 60 -86 20 -26 -14 -56 -25 -66 -25 -31 0 -74 39 -70 64 3 20 9 21 121 24 l117 3 0 38 c0 21 -12 61 -27 92 -22 42 -38 59 -73 77 -55 27 -73 27 -130 -1z m126 -89 c15 -30 15 -32 -2 -45 -19 -14 -73 -17 -111 -7 -53 14 -4 84 58 84 33 0 41 -5 55 -32z m58 -69 c-3 -5 -15 -9 -26 -9 -20 0 -20 1 -5 18 10 10 17 25 18 33 0 8 4 3 10 -9 5 -13 7 -28 3 -33z m-224 28 c0 -7 9 -18 21 -25 l21 -13 -21 -23 c-12 -12 -21 -33 -21 -46 0 -37 -18 -11 -21 30 -3 58 0 90 11 90 6 0 10 -6 10 -13z"/> <path d="M2573 1670 c-48 -21 -103 -94 -86 -111 14 -14 87 8 109 33 34 37 111 8 102 -39 -3 -14 -16 -19 -70 -25 -36 -3 -74 -11 -84 -16 -60 -32 -90 -111 -61 -155 19 -29 75 -57 114 -57 16 0 46 9 68 20 22 11 40 20 41 20 1 0 4 -9 7 -20 4 -16 14 -20 48 -20 l42 0 -6 146 c-4 124 -8 151 -25 173 -45 61 -130 83 -199 51z m178 -90 c10 -36 11 -240 1 -240 -5 0 -16 6 -26 13 -17 13 -17 15 -2 45 21 41 20 51 -5 78 -21 22 -21 25 -5 48 23 36 20 65 -11 94 l-28 25 35 -20 c19 -10 37 -30 41 -43z m-43 -133 c5 -26 -35 -66 -74 -73 -60 -11 -97 33 -56 68 36 33 124 35 130 5z m-179 -29 c-3 -24 1 -37 17 -52 18 -19 5 -21 -18 -3 -23 17 -28 67 -8 67 6 0 10 -6 9 -12z"/> <path d="M2935 1675 c-55 -20 -75 -47 -75 -104 0 -64 19 -86 95 -111 65 -22 92 -47 81 -76 -8 -22 -59 -16 -96 11 -38 28 -72 32 -90 10 -9 -11 -8 -20 10 -45 28 -39 69 -60 120 -60 83 0 138 41 147 109 5 36 2 44 -29 75 -20 20 -53 39 -77 46 -77 20 -103 47 -75 75 18 18 46 12 83 -16 28 -22 91 -26 91 -5 0 24 -42 68 -84 87 -49 22 -50 22 -101 4z m-25 -104 c0 -20 51 -61 91 -71 56 -15 89 -45 89 -82 0 -38 -11 -35 -35 9 -22 40 -28 44 -97 69 -36 12 -49 23 -57 47 -13 37 -13 37 -1 37 6 0 10 -4 10 -9z"/> <path d="M3600 1668 c-112 -58 -130 -267 -29 -341 37 -27 136 -34 177 -13 33 17 82 74 82 96 0 18 -76 7 -100 -15 -9 -9 -33 -18 -53 -22 -29 -4 -40 -1 -62 21 -48 48 -33 60 85 67 58 4 111 7 119 8 11 1 12 13 8 53 -11 88 -62 143 -152 162 -21 5 -43 0 -75 -16z m115 -84 c41 -45 29 -64 -40 -64 -45 0 -85 16 -85 34 0 21 48 56 77 56 13 0 35 -12 48 -26z m59 -6 c23 -45 21 -78 -4 -78 -23 0 -24 4 -9 29 9 13 9 26 1 50 -14 40 -8 40 12 -1z m-195 -109 c-10 -15 -19 -33 -19 -41 -1 -33 -16 16 -19 57 -3 62 7 73 34 39 23 -29 23 -29 4 -55z"/> <path d="M1400 1661 c-49 -25 -66 -63 -51 -112 13 -44 47 -71 117 -95 27 -9 55 -22 63 -29 37 -35 -61 -64 -99 -30 -10 9 -34 19 -54 22 -31 5 -36 3 -36 -14 0 -29 38 -73 76 -89 77 -32 163 -6 198 61 19 38 19 38 0 74 -15 28 -36 44 -94 72 -62 31 -75 41 -75 60 0 33 49 39 76 10 24 -25 77 -28 86 -5 6 17 -29 59 -69 80 -37 19 -97 18 -138 -5z m20 -50 c-25 -48 1 -86 80 -117 44 -17 90 -55 90 -75 0 -16 -22 -53 -39 -66 -29 -23 -35 -13 -9 15 14 15 24 35 23 46 -6 30 -41 61 -89 75 -25 7 -57 24 -72 38 -21 20 -25 30 -20 56 6 29 20 46 39 47 4 0 3 -9 -3 -19z"/> </g> </svg> 