<?xml version="1.0" standalone="no"?>
<!DOCTYPE svg PUBLIC "-//W3C//DTD SVG 20010904//EN"
 "http://www.w3.org/TR/2001/REC-SVG-20010904/DTD/svg10.dtd">
<svg version="1.0" xmlns="http://www.w3.org/2000/svg"
 width="300.000000pt" height="300.000000pt" viewBox="0 0 300.000000 300.000000"
 preserveAspectRatio="xMidYMid meet">
<metadata>
Created by potrace 1.10, written by Peter Selinger 2001-2011
</metadata>
<g transform="translate(0.000000,300.000000) scale(0.100000,-0.100000)"
fill="#21c458" stroke="none">
<path d="M1273 2397 c-11 -7 -71 -79 -131 -162 -61 -82 -162 -220 -225 -305
l-114 -155 -89 -5 c-49 -3 -99 -11 -111 -18 -40 -22 -63 -62 -63 -109 0 -60
21 -96 77 -130 l48 -30 79 -369 c44 -203 85 -387 93 -409 17 -50 39 -73 88
-96 37 -17 77 -19 573 -19 457 0 538 2 569 15 45 19 70 41 89 77 7 14 52 201
99 415 53 243 90 392 99 398 8 6 28 17 45 27 58 32 81 120 48 185 -23 44 -71
63 -161 63 -69 0 -78 2 -109 30 -19 17 -37 30 -40 30 -3 0 -20 -26 -37 -57
-122 -217 -320 -342 -541 -343 -56 0 -69 3 -87 23 -12 13 -22 25 -22 28 0 2
36 3 79 1 158 -7 294 49 411 167 88 88 140 180 170 297 18 68 28 204 16 204
-3 0 -20 -9 -38 -20 -60 -35 -120 -50 -278 -70 -193 -25 -237 -34 -297 -62
-60 -28 -129 -96 -153 -151 -26 -58 -41 -163 -32 -217 l7 -44 38 51 c47 64
134 145 194 180 46 27 161 63 198 63 11 0 -23 -23 -75 -51 -146 -77 -201 -126
-298 -263 l-56 -79 -18 23 c-27 33 -48 115 -48 187 l0 62 -142 3 c-104 2 -143
6 -143 15 0 7 87 129 193 272 215 290 225 313 155 350 -27 14 -32 13 -60 -2z
m-163 -1081 c5 -11 23 -124 41 -250 30 -221 31 -230 13 -243 -23 -17 -58 -17
-73 0 -12 15 -71 403 -71 467 0 29 5 39 22 47 30 13 58 5 68 -21z m418 18 c22
-15 22 -19 22 -254 0 -204 -2 -241 -16 -254 -20 -20 -48 -20 -68 0 -14 13 -16
50 -16 254 0 235 0 239 22 254 12 9 25 16 28 16 3 0 16 -7 28 -16z m442 -4
c13 -13 18 -28 15 -43 -3 -12 -18 -114 -34 -227 -17 -113 -33 -213 -37 -223
-8 -21 -52 -33 -73 -20 -9 6 -17 19 -19 29 -1 10 13 120 32 244 30 195 37 227
56 242 28 23 35 23 60 -2z"/>
<path d="M1652 2390 c-40 -38 -30 -75 50 -183 71 -95 73 -97 113 -97 70 0 117
11 111 27 -3 7 -45 68 -93 134 -101 141 -134 162 -181 119z"/>
</g>
</svg>
